# File created by Blade
# Date/Time:  Tue Jan 27 17:09:01 2015
#---------------------------------------------------------
:version 1.10
:name HOM
:units
  mass 1.0
  length 1.000000
  angle deg
:documentation
     Acclaim Skeleton File
:root
   axis xyz
   order TX TY TZ RX RY RZ
   position 0.000000 0.000000 0.000000
   orientation 0 0 0
:bonedata
   begin
      id 1
      name Spine_dum
      direction 0.000000 1.000000 0.000000
      length 7.539951
      axis 0.0 0.0 0.0 xyz
   end
   begin
      id 2
      name LeftUpLeg_dum
      direction 1.000000 0.000000 0.000000
      length 3.345476
      axis 0.0 0.0 0.0 xyz
   end
   begin
      id 3
      name RightUpLeg_dum
      direction -1.000000 0.000000 0.000000
      length 3.345476
      axis 0.0 0.0 0.0 xyz
   end
   begin
      id 4
      name Spine
      direction 0.000000 1.000000 0.000000
      length 0.000000
      axis 0.0 0.0 0.0 xyz
      dof rx ry rz
   end
   begin
      id 5
      name Spine_dum1
      direction 0.000000 1.000000 0.000000
      length 15.093809
      axis 0.0 0.0 0.0 xyz
   end
   begin
      id 6
      name Spine_dum2
      direction 0.000000 1.000000 0.000000
      length 9.738928
      axis 0.0 0.0 0.0 xyz
   end
   begin
      id 7
      name Spine_dum3
      direction 0.000000 1.000000 0.000000
      length 9.738928
      axis 0.0 0.0 0.0 xyz
   end
   begin
      id 8
      name Head
      direction 0.000000 1.000000 0.000000
      length 4.527550
      axis 0.0 0.0 0.0 xyz
      dof rx ry rz
   end
   begin
      id 9
      name LeftShoulder
      direction 1.000000 0.000000 0.000000
      length 7.084015
      axis 0.0 0.0 -90.0 xyz
      dof rx ry rz
   end
   begin
      id 10
      name LeftArm
      direction 1.000000 0.000000 0.000000
      length 10.259319
      axis 0.0 0.0 -90.0 xyz
      dof rx ry rz
   end
   begin
      id 11
      name LeftForeArm
      direction 1.000000 0.000000 0.000000
      length 9.896984
      axis 0.0 0.0 -90.0 xyz
      dof ry rz rx
   end
   begin
      id 12
      name LeftHand
      direction 0.000000 0.000000 0.000000
      length 0.000000
      axis 0.0 0.0 -90.0 xyz
      dof rx ry rz
   end
   begin
      id 13
      name LeftHand_dum1
      direction 0.000000 0.000000 0.000000
      length 0.000000
      axis 0.0 0.0 -90.0 xyz
   end
   begin
      id 14
      name LeftHand_dum2
      direction 1.000000 0.000000 0.000000
      length 3.937000
      axis 0.0 0.0 -90.0 xyz
   end
   begin
      id 15
      name LeftHandThumb1
      direction 0.000000 0.000000 1.000000
      length 3.937000
      axis 0.0 0.0 -90.0 xyz
      dof rx rz ry
   end
   begin
      id 16
      name RightShoulder
      direction -1.000000 0.000000 0.000000
      length 7.084015
      axis 0.0 0.0 90.0 xyz
      dof rx ry rz
   end
   begin
      id 17
      name RightArm
      direction -1.000000 0.000000 0.000000
      length 10.259319
      axis 0.0 0.0 90.0 xyz
      dof rx ry rz
   end
   begin
      id 18
      name RightForeArm
      direction -1.000000 0.000000 0.000000
      length 9.896984
      axis 0.0 0.0 90.0 xyz
      dof ry rz rx
   end
   begin
      id 19
      name RightHand
      direction 0.000000 0.000000 0.000000
      length 0.000000
      axis 0.0 0.0 90.0 xyz
      dof rx ry rz
   end
   begin
      id 20
      name RightHand_dum1
      direction 0.000000 0.000000 0.000000
      length 0.000000
      axis 0.0 0.0 90.0 xyz
   end
   begin
      id 21
      name RightHand_dum2
      direction -1.000000 0.000000 0.000000
      length 3.937000
      axis 0.0 0.0 90.0 xyz
   end
   begin
      id 22
      name RightHandThumb1
      direction 0.000000 0.000000 1.000000
      length 3.937000
      axis 0.0 0.0 90.0 xyz
      dof rx rz ry
   end
   begin
      id 23
      name LeftUpLeg
      direction 0.000000 -1.000000 0.000000
      length 19.114733
      axis 0.0 0.0 0.0 xyz
      dof rx ry rz
   end
   begin
      id 24
      name LeftLeg
      direction 0.000000 -1.000000 0.000000
      length 16.045604
      axis 0.0 0.0 0.0 xyz
      dof rx ry rz
   end
   begin
      id 25
      name LeftFoot
      direction 0.000000 -0.258819 0.965926
      length 5.543155
      axis 15.0 0.0 0.0 xyz
      dof rx ry rz
   end
   begin
      id 26
      name LeftToeBase
      direction 0.000000 0.000000 1.000000
      length 2.952750
      axis 0.0 0.0 0.0 xyz
      dof rx ry rz
   end
   begin
      id 27
      name RightUpLeg
      direction 0.000000 -1.000000 0.000000
      length 19.114733
      axis 0.0 0.0 0.0 xyz
      dof rx ry rz
   end
   begin
      id 28
      name RightLeg
      direction 0.000000 -1.000000 0.000000
      length 16.045604
      axis 0.0 0.0 0.0 xyz
      dof rx ry rz
   end
   begin
      id 29
      name RightFoot
      direction 0.000000 -0.258819 0.965926
      length 5.543155
      axis 15.0 0.0 0.0 xyz
      dof rx ry rz
   end
   begin
      id 30
      name RightToeBase
      direction 0.000000 0.000000 1.000000
      length 2.952750
      axis 0.0 0.0 0.0 xyz
      dof rx ry rz
   end
:hierarchy
   begin
      root Spine_dum LeftUpLeg_dum RightUpLeg_dum
      Spine_dum Spine
      LeftUpLeg_dum LeftUpLeg
      RightUpLeg_dum RightUpLeg
      Spine Spine_dum1 Spine_dum2 Spine_dum3
      Spine_dum1 Head
      Spine_dum2 LeftShoulder
      Spine_dum3 RightShoulder
      LeftShoulder LeftArm
      LeftArm LeftForeArm
      LeftForeArm LeftHand
      LeftHand LeftHand_dum1 LeftHand_dum2
      LeftHand_dum1 LeftHandThumb1
      RightShoulder RightArm
      RightArm RightForeArm
      RightForeArm RightHand
      RightHand RightHand_dum1 RightHand_dum2
      RightHand_dum1 RightHandThumb1
      LeftUpLeg LeftLeg
      LeftLeg LeftFoot
      LeftFoot LeftToeBase
      RightUpLeg RightLeg
      RightLeg RightFoot
      RightFoot RightToeBase
   end

# File created by Blade
# Date/Time:  Tue Jan 27 17:08:52 2015
# Frame Rate: 120.000 fps
#------------------------------------------------------
:FULLY-SPECIFIED
:DEGREES
1755
root 0.999018 36.634336 0.769069 -1.381757 -14.022063 -11.137308
Spine 8.244780 11.205609 13.669200
Head 0.087620 -17.497091 -0.515864
LeftShoulder -6.904972 -4.000136 2.006247
LeftArm -16.971375 -27.461393 -46.330979
LeftForeArm 13.052780 -0.000000 117.332023
LeftHand -17.846413 0.000000 31.311814
LeftHandThumb1 -26.253704 0.000000 33.147579
RightShoulder 0.266986 -20.619607 -1.532838
RightArm 13.390965 -1.628233 61.713081
RightForeArm 238.011222 -0.000000 29.588092
RightHand 1.334080 -0.000000 -13.627952
RightHandThumb1 -24.326973 -0.000000 -32.862282
LeftUpLeg -5.792006 16.322497 4.368410
LeftLeg 26.229639 -0.000000 -0.000000
LeftFoot -27.649447 9.593200 -10.978744
LeftToeBase 14.398706 -0.000000 -0.000000
RightUpLeg -80.443676 -27.624649 9.943939
RightLeg 113.827563 -0.000000 -0.000000
RightFoot -4.045273 -12.053560 9.955019
RightToeBase 7.479041 -0.000000 -0.000000
1756
root 1.004171 36.639253 0.762972 -1.261631 -14.213424 -11.166534
Spine 8.259041 11.205000 13.627039
Head -0.075593 -17.325054 -0.528616
LeftShoulder -6.888908 -4.025869 2.043357
LeftArm -16.974758 -27.518382 -46.356667
LeftForeArm 13.073366 0.000000 117.358628
LeftHand -18.017276 -0.000000 31.311306
LeftHandThumb1 -26.253704 0.000000 33.147579
RightShoulder 0.264784 -20.629889 -1.498179
RightArm 13.282939 -1.473445 61.839919
RightForeArm 238.370705 -0.000000 29.670268
RightHand 1.257017 -0.000000 -13.670668
RightHandThumb1 -24.326973 -0.000000 -32.862282
LeftUpLeg -5.860234 16.439191 4.345803
LeftLeg 26.142781 -0.000000 -0.000000
LeftFoot -27.618271 9.773813 -10.908513
LeftToeBase 14.318104 -0.000000 -0.000000
RightUpLeg -80.425719 -27.630033 10.093646
RightLeg 113.811355 -0.000000 -0.000000
RightFoot -4.002429 -12.088024 9.767262
RightToeBase 7.115061 -0.000000 -0.000000
1757
root 1.010908 36.643852 0.755138 -1.109103 -14.414734 -11.193972
Spine 8.227158 11.205772 13.574004
Head -0.197908 -17.137273 -0.489655
LeftShoulder -6.877163 -4.013020 2.058895
LeftArm -16.999286 -27.528929 -46.276447
LeftForeArm 13.177711 -0.000000 117.339979
LeftHand -17.981324 -0.000000 31.337983
LeftHandThumb1 -26.253704 0.000000 33.147579
RightShoulder 0.285463 -20.656225 -1.481781
RightArm 13.198421 -1.292403 61.984365
RightForeArm 238.604925 -0.000000 29.699062
RightHand 1.151458 -0.000000 -13.785507
RightHandThumb1 -24.326973 -0.000000 -32.862282
LeftUpLeg -5.977301 16.571843 4.312941
LeftLeg 26.087257 -0.000000 -0.000000
LeftFoot -27.555435 9.925014 -10.817302
LeftToeBase 14.235545 -0.000000 -0.000000
RightUpLeg -80.460863 -27.617073 10.283992
RightLeg 113.776576 -0.000000 -0.000000
RightFoot -3.990659 -12.053306 9.729413
RightToeBase 7.084949 -0.000000 -0.000000
1758
root 1.017334 36.649243 0.746306 -0.967925 -14.612107 -11.233021
Spine 8.224897 11.201573 13.544105
Head -0.307610 -16.978168 -0.478305
LeftShoulder -6.918100 -4.036945 2.106604
LeftArm -16.959606 -27.520624 -46.346216
LeftForeArm 13.329386 0.000000 117.326132
LeftHand -17.953474 -0.000000 31.239900
LeftHandThumb1 -26.253704 0.000000 33.147579
RightShoulder 0.269340 -20.667970 -1.452129
RightArm 13.143439 -1.173764 62.080743
RightForeArm 238.919389 0.000000 29.734311
RightHand 1.170452 -0.000000 -13.906473
RightHandThumb1 -24.326973 -0.000000 -32.862282
LeftUpLeg -6.074677 16.682761 4.291332
LeftLeg 26.025496 -0.000000 -0.000000
LeftFoot -27.427575 10.145568 -10.555878
LeftToeBase 13.928423 -0.000000 -0.000000
RightUpLeg -80.498719 -27.614012 10.514261
RightLeg 113.712837 -0.000000 -0.000000
RightFoot -4.095618 -11.969860 9.893698
RightToeBase 7.329220 -0.000000 -0.000000
1759
root 1.020970 36.653913 0.738316 -0.854957 -14.793986 -11.274814
Spine 8.266459 11.187073 13.522319
Head -0.486627 -16.855342 -0.454217
LeftShoulder -6.895155 -4.067734 2.072127
LeftArm -16.950843 -27.544885 -46.216957
LeftForeArm 13.351548 -0.000000 117.352212
LeftHand -18.115885 -0.000000 31.290741
LeftHandThumb1 -26.253704 0.000000 33.147579
RightShoulder 0.256841 -20.639528 -1.438441
RightArm 13.055177 -1.066465 62.196970
RightForeArm 239.227079 -0.000000 29.802398
RightHand 1.152163 -0.000000 -14.061767
RightHandThumb1 -24.326973 -0.000000 -32.862282
LeftUpLeg -6.144901 16.750872 4.291146
LeftLeg 25.966364 -0.000000 -0.000000
LeftFoot -27.450975 10.271542 -10.652477
LeftToeBase 14.025470 -0.000000 -0.000000
RightUpLeg -80.506811 -27.611556 10.765161
RightLeg 113.657852 -0.000000 -0.000000
RightFoot -3.994130 -11.977786 9.604300
RightToeBase 6.995345 -0.000000 -0.000000
1760
root 1.026863 36.657073 0.728079 -0.733270 -14.997408 -11.298605
Spine 8.294708 11.204270 13.480413
Head -0.628635 -16.703471 -0.424307
LeftShoulder -6.870600 -4.091733 2.150359
LeftArm -16.974980 -27.568235 -46.307207
LeftForeArm 13.478736 -0.000000 117.360015
LeftHand -18.025224 0.000000 31.243260
LeftHandThumb1 -26.253704 0.000000 33.147579
RightShoulder 0.249307 -20.650164 -1.428886
RightArm 12.997578 -0.941442 62.308315
RightForeArm 239.441878 0.000000 29.881225
RightHand 1.169609 0.000000 -14.228377
RightHandThumb1 -24.326973 -0.000000 -32.862282
LeftUpLeg -6.232822 16.815818 4.264020
LeftLeg 25.916051 -0.000000 -0.000000
LeftFoot -27.415877 10.425615 -10.634418
LeftToeBase 13.922780 -0.000000 -0.000000
RightUpLeg -80.560539 -27.602242 11.032639
RightLeg 113.574013 -0.000000 -0.000000
RightFoot -3.963075 -11.951576 9.594507
RightToeBase 7.048698 -0.000000 -0.000000
1761
root 1.034427 36.660331 0.716618 -0.629582 -15.181283 -11.305098
Spine 8.351910 11.155177 13.414364
Head -0.782427 -16.517143 -0.395310
LeftShoulder -6.896575 -4.115198 2.173602
LeftArm -16.953687 -27.596129 -46.306754
LeftForeArm 13.530730 -0.000000 117.398704
LeftHand -18.084970 -0.000000 31.212694
LeftHandThumb1 -26.253704 0.000000 33.147579
RightShoulder 0.281515 -20.632633 -1.428186
RightArm 12.949479 -0.822890 62.419280
RightForeArm 239.718050 0.000000 29.954274
RightHand 1.198509 -0.000000 -14.366921
RightHandThumb1 -24.326973 -0.000000 -32.862282
LeftUpLeg -6.314246 16.889569 4.222572
LeftLeg 25.870693 -0.000000 -0.000000
LeftFoot -27.358892 10.583784 -10.563119
LeftToeBase 13.828097 -0.000000 -0.000000
RightUpLeg -80.614257 -27.597728 11.286507
RightLeg 113.478608 -0.000000 -0.000000
RightFoot -4.015787 -11.906301 9.803724
RightToeBase 7.231178 -0.000000 -0.000000
1762
root 1.041137 36.663694 0.704859 -0.528556 -15.382865 -11.313497
Spine 8.418230 11.150165 13.362821
Head -0.927256 -16.410382 -0.377554
LeftShoulder -6.868325 -4.145319 2.175247
LeftArm -16.970970 -27.628585 -46.249336
LeftForeArm 13.529819 -0.000000 117.467310
LeftHand -18.284361 -0.000000 31.242960
LeftHandThumb1 -26.253704 0.000000 33.147579
RightShoulder 0.301978 -20.642550 -1.431440
RightArm 12.925192 -0.722488 62.511441
RightForeArm 239.741173 0.000000 30.057400
RightHand 1.099939 -0.000000 -14.315052
RightHandThumb1 -24.326973 -0.000000 -32.862282
LeftUpLeg -6.384331 16.998761 4.189098
LeftLeg 25.816252 -0.000000 -0.000000
LeftFoot -27.312411 10.703794 -10.511539
LeftToeBase 13.760933 -0.000000 -0.000000
RightUpLeg -80.668370 -27.570604 11.561522
RightLeg 113.393508 -0.000000 -0.000000
RightFoot -3.914323 -11.935137 9.709105
RightToeBase 6.815529 -0.000000 -0.000000
1763
root 1.047393 36.666637 0.694193 -0.423387 -15.579723 -11.308955
Spine 8.468600 11.166062 13.279109
Head -1.079575 -16.288971 -0.279259
LeftShoulder -6.847834 -4.197861 2.218212
LeftArm -16.985444 -27.616084 -46.242129
LeftForeArm 13.554525 -0.000000 117.506919
LeftHand -18.317913 -0.000000 31.309846
LeftHandThumb1 -26.253704 0.000000 33.147579
RightShoulder 0.269342 -20.656965 -1.382978
RightArm 12.914358 -0.637239 62.572739
RightForeArm 239.982067 -0.000000 30.155697
RightHand 1.175192 -0.000000 -14.423467
RightHandThumb1 -24.326973 -0.000000 -32.862282
LeftUpLeg -6.461024 17.117924 4.140929
LeftLeg 25.757323 -0.000000 -0.000000
LeftFoot -27.242070 10.837034 -10.429982
LeftToeBase 13.634988 -0.000000 -0.000000
RightUpLeg -80.750033 -27.549937 11.856001
RightLeg 113.293424 -0.000000 -0.000000
RightFoot -3.867130 -11.952408 9.732121
RightToeBase 6.815135 -0.000000 -0.000000
1764
root 1.053830 36.668928 0.683809 -0.325314 -15.773252 -11.296291
Spine 8.524405 11.180854 13.183672
Head -1.213397 -16.193454 -0.169262
LeftShoulder -6.831923 -4.225176 2.265333
LeftArm -16.992914 -27.633954 -46.243542
LeftForeArm 13.549089 -0.000000 117.528757
LeftHand -18.123841 0.000000 31.287746
LeftHandThumb1 -26.253704 0.000000 33.147579
RightShoulder 0.234718 -20.674068 -1.339051
RightArm 12.939113 -0.571556 62.627624
RightForeArm 240.108580 0.000000 30.211526
RightHand 1.139523 -0.000000 -14.553012
RightHandThumb1 -24.326973 -0.000000 -32.862282
LeftUpLeg -6.525160 17.230185 4.086334
LeftLeg 25.684338 -0.000000 -0.000000
LeftFoot -27.193297 10.945567 -10.386256
LeftToeBase 13.580694 -0.000000 -0.000000
RightUpLeg -80.857419 -27.553156 12.164677
RightLeg 113.195175 -0.000000 -0.000000
RightFoot -3.796601 -11.962850 9.713723
RightToeBase 6.679255 -0.000000 -0.000000
